<?xml version="1.0" encoding="UTF-8"?>
<svg xmlns="http://www.w3.org/2000/svg" xmlns:xlink="http://www.w3.org/1999/xlink" width="400" height="240" viewBox="0 0 400 240">
  <!-- Quantum Circuit Diagram SVG -->
  <!-- Background -->
  <rect x="0" y="0" width="400" height="240" fill="#f5f7fa" />

  <!-- Qubit lines -->
  <line x1="50" y1="40" x2="350" y2="40" stroke="#2c3e50" stroke-width="2" />
  <line x1="50" y1="80" x2="350" y2="80" stroke="#2c3e50" stroke-width="2" />
  <line x1="50" y1="120" x2="350" y2="120" stroke="#2c3e50" stroke-width="2" />
  <line x1="50" y1="160" x2="350" y2="160" stroke="#2c3e50" stroke-width="2" />
  <line x1="50" y1="200" x2="350" y2="200" stroke="#2c3e50" stroke-width="2" />

  <!-- Qubit labels -->
  <text x="30" y="44" font-family="Arial" font-size="14" fill="#2c3e50">q[0]:</text>
  <text x="30" y="84" font-family="Arial" font-size="14" fill="#2c3e50">q[1]:</text>
  <text x="30" y="124" font-family="Arial" font-size="14" fill="#2c3e50">q[2]:</text>
  <text x="30" y="164" font-family="Arial" font-size="14" fill="#2c3e50">q[3]:</text>
  <text x="30" y="204" font-family="Arial" font-size="14" fill="#2c3e50">q[4]:</text>

  <!-- H gates -->
  <rect x="80" y="25" width="30" height="30" fill="#3498db" rx="4" />
  <text x="95" y="45" font-family="Arial" font-size="16" fill="white" text-anchor="middle">H</text>

  <rect x="80" y="65" width="30" height="30" fill="#3498db" rx="4" />
  <text x="95" y="85" font-family="Arial" font-size="16" fill="white" text-anchor="middle">H</text>

  <rect x="80" y="105" width="30" height="30" fill="#3498db" rx="4" />
  <text x="95" y="125" font-family="Arial" font-size="16" fill="white" text-anchor="middle">H</text>

  <!-- CNOT gates -->
  <circle cx="160" cy="40" r="10" fill="#9b59b6" stroke="white" stroke-width="2" />
  <line x1="160" y1="40" x2="160" y2="160" stroke="#9b59b6" stroke-width="2" />
  <circle cx="160" cy="160" r="15" fill="none" stroke="#9b59b6" stroke-width="2" />
  <line x1="145" y1="160" x2="175" y2="160" stroke="#9b59b6" stroke-width="2" />

  <circle cx="220" cy="80" r="10" fill="#9b59b6" stroke="white" stroke-width="2" />
  <line x1="220" y1="80" x2="220" y2="160" stroke="#9b59b6" stroke-width="2" />
  <circle cx="220" cy="160" r="15" fill="none" stroke="#9b59b6" stroke-width="2" />
  <line x1="205" y1="160" x2="235" y2="160" stroke="#9b59b6" stroke-width="2" />

  <circle cx="280" cy="120" r="10" fill="#9b59b6" stroke="white" stroke-width="2" />
  <line x1="280" y1="120" x2="280" y2="200" stroke="#9b59b6" stroke-width="2" />
  <circle cx="280" cy="200" r="15" fill="none" stroke="#9b59b6" stroke-width="2" />
  <line x1="265" y1="200" x2="295" y2="200" stroke="#9b59b6" stroke-width="2" />

  <!-- Measurement gates -->
  <path d="M 330 25 L 330 55 L 340 40 Z" stroke="#e74c3c" stroke-width="2" fill="none" />
  <path d="M 330 65 L 330 95 L 340 80 Z" stroke="#e74c3c" stroke-width="2" fill="none" />
  <path d="M 330 105 L 330 135 L 340 120 Z" stroke="#e74c3c" stroke-width="2" fill="none" />
  <path d="M 330 145 L 330 175 L 340 160 Z" stroke="#e74c3c" stroke-width="2" fill="none" />
  <path d="M 330 185 L 330 215 L 340 200 Z" stroke="#e74c3c" stroke-width="2" fill="none" />
</svg>
